<svg height="236" width="923" viewBox="-45.085 -19.219 300.54 34.017" fill="#fff" xmlns="http://www.w3.org/2000/svg"><defs><clipPath clipPathUnits="userSpaceOnUse" id="a"><path d="M0 0h2404.52v615H0z"/></clipPath></defs><g clip-path="url(#a)" transform="matrix(.125 0 0 -.125 -45.097 36.227)"><path style="fill:#fff;fill-opacity:1;stroke:#fff;stroke-width:.940473;stroke-dasharray:none;stroke-opacity:1" transform="scale(1 -1)" d="M.571-614.407h2403.377V-.592H.571z"/><path d="m404.246 262.023-203.683 46.094c-60.715 13.738-98.79 74.09-85.055 134.801 13.734 60.711 74.086 98.789 134.801 85.051 60.707-13.735 98.789-74.086 85.046-134.797-6.875-30.395-25.449-55.094-49.886-70.481 0 0-.063-.046-.09-.062a2.838 2.838 0 0 1-1.184-2.301c0-1.324.918-2.437 2.149-2.734 0 0 90.609-20.492 90.625-20.492a5.623 5.623 0 0 1 5.715 2.093c.011.016 0 .004 0 .004 24.968 33.028 39.957 74.239 39.957 118.817 0 104.972-82.016 190.754-185.457 196.855-.918.043-6.532.262-8.426.293-45.793.715-92.231-12.418-132.621-40.699C-5.836 503.059-30.621 362.508 40.785 260.531L221.992 1.738A4.214 4.214 0 0 1 225.41 0c1.41 0 2.66.695 3.426 1.754 0 0 177.941 253.766 177.961 253.789a4.23 4.23 0 0 1 .719 2.363 4.224 4.224 0 0 1-3.27 4.117" fill="#fabc26"/><path d="M571.07 212.23v-53.335c0-16.278 6.535-23.766 22.805-23.766 17.109 0 22.813 8.203 22.813 23.766v53.335h11.289v-50.371c0-23.757-8.434-35.996-34.102-35.996-24.465 0-34.09 11.403-34.09 34.813v51.554h11.285m120.711-33.976 37.063-50.606H714.59l-30.649 43-14.019-13.296v-29.704h-11.168v84.582h11.168v-41.937l42.887 41.937h14.609l-35.637-33.976m70.649-5.109h21.035c10.93 0 22.215 1.07 22.215 14.972 0 12.586-9.27 14.606-19.246 14.606H762.43zm26.023 39.085c15.918 0 28.391-5.234 28.391-23.406 0-9.863-5.824-18.051-14.492-20.547 11.882-2.496 12.355-10.57 12.828-20.793.363-6.769.363-15.324 4.875-19.836h-12.832c-2.731 4.278-2.618 13.778-2.852 18.653-.715 14.254-4.402 17.933-19.719 17.933H762.43v-36.586h-11.157v84.582h37.18m89.789-10.695-14.609-39.078h28.984zm39.555-73.887h-12.469l-9.39 25.899h-35.52l-9.617-25.899h-11.879l33.254 84.582h12.597l33.024-84.582m22.316 0h11.16v84.582h-11.16zm54.453 84.582 44.664-68.664v68.664h10.81v-84.582h-12.59l-44.427 67.829v-67.829h-10.695v84.582h12.238m145.204-9.738h-47.4v-26.488h44.31v-9.391h-44.31v-29.222h48v-9.743h-59.16v84.582h58.56v-9.738m27.85-25.191-1.19 33.027h7.72l-1.07-33.027h-5.46m88.22 10.101c-1.3 12.239-8.55 17.223-21.03 17.223-12.11 0-19.11-5.105-19.11-14.02 0-9.5 9.85-11.523 22.92-14.25 13.79-2.859 31.35-7.125 31.35-24.949 0-18.769-16.74-25.664-32.9-25.664-20.19 0-35.04 9.387-35.04 29.821h10.8c.48-15.325 11.65-20.668 25.2-20.668 9.86 0 21.03 3.445 21.03 15.445 0 10.926-10.7 13.062-24.6 16.273-13.66 3.086-29.46 5.348-29.46 23.164 0 17.344 15.45 24.118 30.65 24.118 17.94 0 30.29-8.317 31-26.493h-10.81m96.47 24.828 44.66-68.664v68.664h10.82v-84.582h-12.6l-44.43 67.829v-67.829h-10.69v84.582h12.24m116.77-10.695-14.61-39.078h28.99zm39.56-73.887h-12.47l-9.38 25.899h-35.53l-9.62-25.899h-11.88l33.27 84.582h12.58l33.03-84.582m71.57 74.844h-28.39v-74.844h-11.17v74.844h-28.39v9.738h67.95v-9.738m22.88-74.844h11.172v84.582h-11.172zm49.44 42.411c0-21.149 11.53-34.809 29.47-34.809 17.69 0 29.22 13.777 29.22 34.809 0 20.906-11.53 34.449-29.47 34.449-19.95 0-29.22-16.391-29.22-34.449zm69.85.589c0-24.828-13.65-45.015-40.5-45.015-27.09 0-40.51 20.668-40.51 45.258 0 26.367 15.8 43.359 40.38 43.359 26.27 0 40.63-18.414 40.63-43.602m39.03 41.582 44.66-68.664v68.664h10.82v-84.582h-12.59l-44.44 67.829v-67.829h-10.69v84.582h12.24m116.77-10.695-14.61-39.078h28.99zm39.56-73.887h-12.47l-9.38 25.899h-35.53l-9.62-25.899h-11.88l33.27 84.582h12.59l33.02-84.582m78.19 0h-56.06v84.582h11.16v-74.839h44.9v-9.743m78.3 44.079h21.5c10.8 0 19.13 2.964 19.13 15.437 0 13.539-9.64 15.445-20.68 15.445h-19.95zm23.63 40.503c16.16 0 28.16-6.769 28.16-24.359 0-19.121-12.35-25.535-28.87-25.535h-22.92v-34.688h-11.17v84.582h34.8m61.05-42.171c0-21.149 11.53-34.809 29.46-34.809 17.69 0 29.22 13.777 29.22 34.809 0 20.906-11.53 34.449-29.46 34.449-19.95 0-29.22-16.391-29.22-34.449zm69.85.589c0-24.828-13.66-45.015-40.5-45.015-27.09 0-40.52 20.668-40.52 45.258 0 26.367 15.8 43.359 40.39 43.359 26.26 0 40.63-18.414 40.63-43.602m75.62 16.754c-1.3 12.239-8.56 17.223-21.03 17.223-12.11 0-19.13-5.105-19.13-14.02 0-9.5 9.87-11.523 22.94-14.25 13.77-2.859 31.36-7.125 31.36-24.949 0-18.769-16.75-25.664-32.91-25.664-20.2 0-35.04 9.387-35.04 29.821h10.81c.47-15.325 11.64-20.668 25.18-20.668 9.86 0 21.03 3.445 21.03 15.445 0 10.926-10.7 13.062-24.6 16.273-13.65 3.086-29.46 5.348-29.46 23.164 0 17.344 15.45 24.118 30.66 24.118 17.93 0 30.28-8.317 31-26.493h-10.81m98.88 15.09h-28.4v-74.844h-11.17v74.844h-28.39v9.738h67.96v-9.738" fill="#617171"/><path d="M537.281 488.957c0 3.258 1.805 5.066 5.067 5.066h31.832c3.258 0 5.062-1.808 5.062-5.066V384.039c0-29.309 16.285-50.293 46.309-50.293 29.312 0 46.672 19.902 46.672 50.293v104.918c0 3.258 1.804 5.066 5.066 5.066h31.84c3.258 0 5.066-1.808 5.066-5.066V383.672c0-51.012-34.011-89.723-88.644-89.723-54.266 0-88.27 38.711-88.27 89.723v105.285m258.621 5.066c3.258 0 5.063-1.808 5.063-5.066v-78.148l81.414 80.32c2.168 1.809 5.418 2.894 9.402 2.894h44.137c3.262 0 4.34-2.894 1.805-5.429l-86.457-81.039 91.886-105.282c2.536-2.531 1.09-5.425-2.168-5.425h-43.41c-3.984 0-6.883 1.082-9.054 3.617l-66.207 82.484-21.348-16.64V301.91c0-3.254-1.805-5.062-5.063-5.062H764.07c-3.254 0-5.062 1.808-5.062 5.062v187.047c0 3.258 1.808 5.066 5.062 5.066h31.832m268.788-104.921c22.79 0 35.46 14.472 35.46 32.925 0 18.45-12.67 32.2-35.46 32.2h-52.1v-65.125zm0 104.921c43.78 0 77.42-31.117 77.42-71.996 0-26.05-14.11-48.48-34.73-60.422l31.11-59.695c1.46-2.527-.36-5.062-3.25-5.062h-35.46c-2.9 0-5.06 1.082-6.5 3.617l-24.25 49.203c-2.53-.363-4.34-.363-5.78-.363h-50.66V301.91c0-3.254-1.8-5.062-5.06-5.062h-31.839c-3.253 0-5.062 1.808-5.062 5.062v187.047c0 3.258 1.809 5.066 5.062 5.066h88.999m211.02-104.921c22.07 0 34.73 13.75 34.73 32.925 0 18.809-12.66 32.2-34.73 32.2h-52.46v-65.125zm0 104.921c43.78 0 76.7-31.476 76.7-71.996 0-41.968-32.92-72.722-76.7-72.722h-52.46V301.91c0-3.254-1.81-5.062-5.07-5.062h-31.83c-3.25 0-5.06 1.808-5.06 5.062v187.047c0 3.258 1.81 5.066 5.06 5.066h89.36m144.49-98.769c0-35.82 25.32-61.863 61.5-61.863 35.82 0 61.14 26.043 61.14 61.863 0 36.539-25.32 62.226-61.14 62.226-36.18 0-61.5-25.687-61.5-62.226zm61.5 101.66c56.81 0 103.48-43.777 103.48-101.66 0-58.246-46.67-101.305-103.48-101.305-57.16 0-103.83 43.059-103.83 101.305 0 57.883 46.67 101.66 103.83 101.66m297.78-30.027c2.53-1.809 2.89-3.981 1.08-6.508l-18.09-22.434c-2.17-2.535-4.7-2.894-7.6-.359-16.27 13.019-37.26 20.258-62.23 20.258-24.59 0-37.98-6.875-37.98-18.09 0-11.578 10.85-17.371 43.78-20.621 50.65-4.703 87.18-21.711 87.18-62.949 0-39.434-36.89-62.235-86.46-62.235-36.18 0-64.4 8.688-90.45 30.395-2.53 1.804-2.53 4.34-.36 7.234l17.01 22.793c2.17 2.895 4.7 3.258 7.23 1.082 19.9-15.551 38.71-22.426 67.3-22.426 30.38 0 44.13 9.043 44.13 22.426 0 14.11-13.75 20.266-50.29 23.52-48.48 3.976-80.68 18.449-80.68 59.336 0 35.812 34.38 58.605 81.77 58.605 31.83 0 61.5-10.851 84.66-30.027m79.82 27.136c3.26 0 5.06-1.808 5.06-5.066v-69.824h89.73v69.824c0 3.258 1.81 5.066 5.06 5.066H1991c3.25 0 5.06-1.808 5.06-5.066V301.91c0-3.254-1.81-5.062-5.06-5.062h-31.85c-3.25 0-5.06 1.808-5.06 5.062v77.426h-89.73V301.91c0-3.254-1.8-5.062-5.06-5.062h-31.83c-3.26 0-5.06 1.808-5.06 5.062v187.047c0 3.258 1.8 5.066 5.06 5.066h31.83m335.73 0c3.26 0 5.07-1.808 5.07-5.066v-29.664c0-3.262-1.81-5.066-5.07-5.066h-62.96V301.91c0-3.254-1.8-5.062-5.06-5.062h-31.83c-3.26 0-5.07 1.808-5.07 5.062v152.317h-62.95c-3.26 0-5.07 1.804-5.07 5.066v29.664c0 3.258 1.81 5.066 5.07 5.066h167.87m66.27-120.117h68.73l-31.84 81.039h-3.97zm83.2-37.98h-98.4l-13.75-34.738c-1.08-2.895-3.26-4.34-6.15-4.34h-35.82c-3.61 0-4.7 1.808-3.61 5.062l85.38 189.219c.72 1.809 2.17 2.894 4.71 2.894h41.24c2.53 0 3.97-1.085 4.7-2.894l81.4-188.492c1.09-2.895-.72-5.789-3.98-5.789h-34.37c-3.61 0-6.14 1.808-7.6 5.062l-13.75 34.016" fill="#2c2e2c"/></g></svg>
